<mxfile host="app.diagrams.net" agent="Mozilla/5.0 (Windows NT 10.0; Win64; x64; rv:133.0) Gecko/20100101 Firefox/133.0" version="25.0.3">
  <diagram name="Page-1" id="qeLXGQTTY-97q35d143V">
    <mxGraphModel dx="4209" dy="2114" grid="1" gridSize="10" guides="1" tooltips="1" connect="1" arrows="1" fold="1" page="1" pageScale="1" pageWidth="827" pageHeight="1169" math="0" shadow="0">
      <root>
        <mxCell id="0" />
        <mxCell id="1" parent="0" />
        <mxCell id="-pU3nQpz12ux-RrfOw-z-7" style="rounded=1;orthogonalLoop=1;jettySize=auto;html=1;exitX=0;exitY=0.5;exitDx=0;exitDy=0;entryX=1;entryY=0.5;entryDx=0;entryDy=0;endArrow=none;endFill=0;strokeWidth=5;strokeColor=#037B35;align=left;fontSize=16;" parent="1" source="-pU3nQpz12ux-RrfOw-z-1" target="-pU3nQpz12ux-RrfOw-z-4" edge="1">
          <mxGeometry relative="1" as="geometry" />
        </mxCell>
        <mxCell id="-pU3nQpz12ux-RrfOw-z-2" value="&lt;div&gt;&lt;font face=&quot;Tahoma&quot;&gt;&lt;b&gt;5-92: &lt;/b&gt;Translocation Hub&lt;br&gt;&lt;/font&gt;&lt;/div&gt;" style="text;html=1;strokeColor=none;fillColor=none;align=left;verticalAlign=middle;whiteSpace=wrap;rounded=0;fontSize=16;" parent="1" vertex="1">
          <mxGeometry x="-460" y="-895.5" width="180" height="20" as="geometry" />
        </mxCell>
        <mxCell id="-pU3nQpz12ux-RrfOw-z-5" value="&lt;div&gt;&lt;font face=&quot;Tahoma&quot;&gt;&lt;b&gt;5-94: &lt;/b&gt;Cloister&lt;br&gt;&lt;/font&gt;&lt;/div&gt;" style="text;html=1;strokeColor=none;fillColor=none;align=left;verticalAlign=middle;whiteSpace=wrap;rounded=0;fontSize=16;" parent="1" vertex="1">
          <mxGeometry x="-818.76" y="-869.5" width="105" height="20" as="geometry" />
        </mxCell>
        <mxCell id="-pU3nQpz12ux-RrfOw-z-9" style="rounded=1;orthogonalLoop=1;jettySize=auto;html=1;exitX=0.5;exitY=1;exitDx=0;exitDy=0;entryX=0.5;entryY=0;entryDx=0;entryDy=0;strokeWidth=5;strokeColor=#037B35;endArrow=none;endFill=0;align=left;fontSize=16;" parent="1" source="-pU3nQpz12ux-RrfOw-z-1" target="-pU3nQpz12ux-RrfOw-z-8" edge="1">
          <mxGeometry relative="1" as="geometry">
            <Array as="points">
              <mxPoint x="-460" y="-720" />
              <mxPoint x="-700" y="-720" />
            </Array>
          </mxGeometry>
        </mxCell>
        <mxCell id="-pU3nQpz12ux-RrfOw-z-12" style="rounded=1;orthogonalLoop=1;jettySize=auto;html=1;exitX=1;exitY=0.5;exitDx=0;exitDy=0;entryX=0;entryY=0.5;entryDx=0;entryDy=0;strokeWidth=5;strokeColor=#037B35;endArrow=none;endFill=0;align=left;fontSize=16;" parent="1" source="-pU3nQpz12ux-RrfOw-z-1" target="-pU3nQpz12ux-RrfOw-z-11" edge="1">
          <mxGeometry relative="1" as="geometry" />
        </mxCell>
        <mxCell id="-pU3nQpz12ux-RrfOw-z-15" style="rounded=1;orthogonalLoop=1;jettySize=auto;html=1;exitX=0.5;exitY=1;exitDx=0;exitDy=0;entryX=0.5;entryY=0;entryDx=0;entryDy=0;strokeColor=#037B35;strokeWidth=5;endArrow=none;endFill=0;align=left;fontSize=16;" parent="1" source="-pU3nQpz12ux-RrfOw-z-1" target="-pU3nQpz12ux-RrfOw-z-92" edge="1">
          <mxGeometry relative="1" as="geometry">
            <Array as="points">
              <mxPoint x="-460" y="-720" />
              <mxPoint x="-220" y="-720" />
            </Array>
          </mxGeometry>
        </mxCell>
        <mxCell id="-pU3nQpz12ux-RrfOw-z-95" style="edgeStyle=none;shape=connector;rounded=1;orthogonalLoop=1;jettySize=auto;html=1;exitX=1;exitY=1;exitDx=0;exitDy=0;entryX=0.066;entryY=0.872;entryDx=0;entryDy=0;strokeColor=#A3A2A5;strokeWidth=5;align=center;verticalAlign=middle;fontFamily=Helvetica;fontSize=16;fontColor=default;labelBackgroundColor=default;endArrow=none;endFill=0;dashed=1;dashPattern=1 1;entryPerimeter=0;" parent="1" source="-pU3nQpz12ux-RrfOw-z-8" target="-pU3nQpz12ux-RrfOw-z-92" edge="1">
          <mxGeometry relative="1" as="geometry">
            <Array as="points">
              <mxPoint x="-640" y="-600" />
              <mxPoint x="-280" y="-600" />
            </Array>
          </mxGeometry>
        </mxCell>
        <mxCell id="-pU3nQpz12ux-RrfOw-z-8" value="" style="ellipse;whiteSpace=wrap;html=1;aspect=fixed;strokeWidth=5;align=left;fontSize=16;" parent="1" vertex="1">
          <mxGeometry x="-710" y="-670" width="20" height="20" as="geometry" />
        </mxCell>
        <mxCell id="-pU3nQpz12ux-RrfOw-z-10" value="&lt;div&gt;&lt;font face=&quot;Tahoma&quot;&gt;&lt;b&gt;6-124: &lt;/b&gt;Residential Pod&lt;br&gt;&lt;/font&gt;&lt;/div&gt;" style="text;html=1;strokeColor=none;fillColor=none;align=left;verticalAlign=middle;whiteSpace=wrap;rounded=0;fontSize=16;" parent="1" vertex="1">
          <mxGeometry x="-680" y="-674.62" width="167.63" height="25" as="geometry" />
        </mxCell>
        <mxCell id="-pU3nQpz12ux-RrfOw-z-54" style="edgeStyle=none;shape=connector;rounded=1;orthogonalLoop=1;jettySize=auto;html=1;exitX=1;exitY=0.5;exitDx=0;exitDy=0;entryX=0;entryY=0.5;entryDx=0;entryDy=0;strokeColor=#037B35;strokeWidth=5;align=left;verticalAlign=middle;fontFamily=Helvetica;fontSize=16;fontColor=default;labelBackgroundColor=default;endArrow=none;endFill=0;" parent="1" source="-pU3nQpz12ux-RrfOw-z-11" target="-pU3nQpz12ux-RrfOw-z-52" edge="1">
          <mxGeometry relative="1" as="geometry" />
        </mxCell>
        <mxCell id="-pU3nQpz12ux-RrfOw-z-102" style="edgeStyle=none;shape=connector;rounded=1;orthogonalLoop=1;jettySize=auto;html=1;exitX=1;exitY=1;exitDx=0;exitDy=0;entryX=0;entryY=1;entryDx=0;entryDy=0;strokeColor=#A3A2A5;strokeWidth=5;align=center;verticalAlign=middle;fontFamily=Helvetica;fontSize=16;fontColor=default;labelBackgroundColor=default;endArrow=none;endFill=0;dashed=1;dashPattern=1 1;" parent="1" source="-pU3nQpz12ux-RrfOw-z-11" target="-pU3nQpz12ux-RrfOw-z-52" edge="1">
          <mxGeometry relative="1" as="geometry">
            <Array as="points">
              <mxPoint x="-160" y="-800" />
              <mxPoint x="-40" y="-800" />
            </Array>
          </mxGeometry>
        </mxCell>
        <mxCell id="-pU3nQpz12ux-RrfOw-z-11" value="" style="ellipse;whiteSpace=wrap;html=1;aspect=fixed;strokeWidth=5;align=left;fontSize=16;" parent="1" vertex="1">
          <mxGeometry x="-230" y="-870" width="20" height="20" as="geometry" />
        </mxCell>
        <mxCell id="-pU3nQpz12ux-RrfOw-z-13" value="&lt;div&gt;&lt;font face=&quot;Tahoma&quot;&gt;&lt;b&gt;5-132: &lt;/b&gt;Troll Pits&lt;br&gt;&lt;/font&gt;&lt;/div&gt;" style="text;html=1;strokeColor=none;fillColor=none;align=left;verticalAlign=middle;whiteSpace=wrap;rounded=0;fontSize=16;" parent="1" vertex="1">
          <mxGeometry x="-225" y="-895.5" width="130" height="20" as="geometry" />
        </mxCell>
        <mxCell id="-pU3nQpz12ux-RrfOw-z-94" style="edgeStyle=none;shape=connector;rounded=1;orthogonalLoop=1;jettySize=auto;html=1;exitX=0;exitY=0.5;exitDx=0;exitDy=0;entryX=1;entryY=0;entryDx=0;entryDy=0;strokeColor=#A3A2A5;strokeWidth=5;align=center;verticalAlign=middle;fontFamily=Helvetica;fontSize=16;fontColor=default;labelBackgroundColor=default;endArrow=none;endFill=0;dashed=1;dashPattern=1 1;" parent="1" source="-pU3nQpz12ux-RrfOw-z-14" target="-pU3nQpz12ux-RrfOw-z-92" edge="1">
          <mxGeometry relative="1" as="geometry">
            <Array as="points">
              <mxPoint x="-160" y="-720" />
            </Array>
          </mxGeometry>
        </mxCell>
        <mxCell id="-pU3nQpz12ux-RrfOw-z-14" value="" style="ellipse;whiteSpace=wrap;html=1;aspect=fixed;strokeWidth=5;align=left;fontSize=16;" parent="1" vertex="1">
          <mxGeometry x="-90" y="-730" width="20" height="20" as="geometry" />
        </mxCell>
        <mxCell id="-pU3nQpz12ux-RrfOw-z-16" value="&lt;div&gt;&lt;font face=&quot;Tahoma&quot;&gt;&lt;b&gt;6-95A: &lt;/b&gt;Arena&lt;br&gt;&lt;/font&gt;&lt;/div&gt;" style="text;html=1;strokeColor=none;fillColor=none;align=left;verticalAlign=middle;whiteSpace=wrap;rounded=0;fontSize=16;" parent="1" vertex="1">
          <mxGeometry x="-200" y="-675.5" width="105" height="25" as="geometry" />
        </mxCell>
        <mxCell id="-pU3nQpz12ux-RrfOw-z-26" style="rounded=1;orthogonalLoop=1;jettySize=auto;html=1;entryX=0.5;entryY=1;entryDx=0;entryDy=0;endArrow=none;endFill=0;strokeWidth=5;strokeColor=#0198D4;exitX=0.5;exitY=0;exitDx=0;exitDy=0;align=left;fontSize=16;" parent="1" source="-pU3nQpz12ux-RrfOw-z-27" target="-pU3nQpz12ux-RrfOw-z-24" edge="1">
          <mxGeometry relative="1" as="geometry">
            <mxPoint x="-940" y="-710" as="sourcePoint" />
          </mxGeometry>
        </mxCell>
        <mxCell id="-pU3nQpz12ux-RrfOw-z-19" value="&lt;div&gt;&lt;font face=&quot;Tahoma&quot;&gt;&lt;b&gt;7-146&lt;/b&gt;&lt;br&gt;&lt;/font&gt;&lt;/div&gt;" style="text;html=1;strokeColor=none;fillColor=none;align=left;verticalAlign=middle;whiteSpace=wrap;rounded=0;fontSize=16;" parent="1" vertex="1">
          <mxGeometry x="-920" y="-477.62" width="50" height="30.5" as="geometry" />
        </mxCell>
        <mxCell id="03BhAXGe4HA2jBTyms_U-3" style="edgeStyle=none;shape=connector;rounded=1;orthogonalLoop=1;jettySize=auto;html=1;exitX=1;exitY=0;exitDx=0;exitDy=0;dashed=1;dashPattern=1 1;strokeColor=#A3A2A5;strokeWidth=5;align=center;verticalAlign=middle;fontFamily=Helvetica;fontSize=16;fontColor=default;labelBackgroundColor=default;endArrow=none;endFill=0;" parent="1" source="-pU3nQpz12ux-RrfOw-z-24" edge="1">
          <mxGeometry relative="1" as="geometry">
            <mxPoint x="-880" y="-920" as="targetPoint" />
          </mxGeometry>
        </mxCell>
        <mxCell id="-pU3nQpz12ux-RrfOw-z-24" value="" style="ellipse;whiteSpace=wrap;html=1;aspect=fixed;strokeWidth=5;align=left;fontSize=16;" parent="1" vertex="1">
          <mxGeometry x="-950" y="-870" width="20" height="20" as="geometry" />
        </mxCell>
        <mxCell id="-pU3nQpz12ux-RrfOw-z-25" value="&lt;div&gt;&lt;font face=&quot;Tahoma&quot;&gt;&lt;b&gt;5-84&lt;/b&gt;&lt;br&gt;&lt;/font&gt;&lt;/div&gt;" style="text;html=1;strokeColor=none;fillColor=none;align=left;verticalAlign=middle;whiteSpace=wrap;rounded=0;fontSize=16;" parent="1" vertex="1">
          <mxGeometry x="-920" y="-870" width="50" height="21" as="geometry" />
        </mxCell>
        <mxCell id="-pU3nQpz12ux-RrfOw-z-28" style="rounded=1;orthogonalLoop=1;jettySize=auto;html=1;exitX=0.5;exitY=1;exitDx=0;exitDy=0;entryX=0.5;entryY=0;entryDx=0;entryDy=0;strokeColor=#0198D4;endArrow=none;endFill=0;strokeWidth=5;align=left;fontSize=16;" parent="1" source="-pU3nQpz12ux-RrfOw-z-27" target="-pU3nQpz12ux-RrfOw-z-17" edge="1">
          <mxGeometry relative="1" as="geometry" />
        </mxCell>
        <mxCell id="-pU3nQpz12ux-RrfOw-z-29" value="&lt;div&gt;&lt;font face=&quot;Tahoma&quot;&gt;&lt;b&gt;6-164&lt;/b&gt;&lt;br&gt;&lt;/font&gt;&lt;/div&gt;" style="text;html=1;strokeColor=none;fillColor=none;align=left;verticalAlign=middle;whiteSpace=wrap;rounded=0;fontSize=16;" parent="1" vertex="1">
          <mxGeometry x="-920" y="-672.37" width="60" height="21" as="geometry" />
        </mxCell>
        <mxCell id="-pU3nQpz12ux-RrfOw-z-32" style="edgeStyle=none;shape=connector;rounded=1;orthogonalLoop=1;jettySize=auto;html=1;exitX=0.5;exitY=1;exitDx=0;exitDy=0;entryX=0.5;entryY=0;entryDx=0;entryDy=0;strokeColor=#0198D4;strokeWidth=5;align=left;verticalAlign=middle;fontFamily=Helvetica;fontSize=16;fontColor=default;labelBackgroundColor=default;endArrow=none;endFill=0;" parent="1" source="-pU3nQpz12ux-RrfOw-z-17" target="-pU3nQpz12ux-RrfOw-z-30" edge="1">
          <mxGeometry relative="1" as="geometry" />
        </mxCell>
        <mxCell id="-pU3nQpz12ux-RrfOw-z-80" style="edgeStyle=none;shape=connector;rounded=1;orthogonalLoop=1;jettySize=auto;html=1;exitX=0.104;exitY=0.958;exitDx=0;exitDy=0;entryX=1;entryY=1;entryDx=0;entryDy=0;strokeColor=#A3A2A5;strokeWidth=5;align=center;verticalAlign=middle;fontFamily=Helvetica;fontSize=16;fontColor=default;labelBackgroundColor=default;endArrow=none;endFill=0;dashed=1;dashPattern=1 1;exitPerimeter=0;" parent="1" source="-pU3nQpz12ux-RrfOw-z-30" target="-pU3nQpz12ux-RrfOw-z-78" edge="1">
          <mxGeometry relative="1" as="geometry">
            <Array as="points">
              <mxPoint x="-1000" />
              <mxPoint x="-1120" />
            </Array>
          </mxGeometry>
        </mxCell>
        <mxCell id="-pU3nQpz12ux-RrfOw-z-30" value="" style="ellipse;whiteSpace=wrap;html=1;aspect=fixed;strokeWidth=5;align=left;fontSize=16;" parent="1" vertex="1">
          <mxGeometry x="-950" y="-70" width="20" height="20" as="geometry" />
        </mxCell>
        <mxCell id="-pU3nQpz12ux-RrfOw-z-31" value="&lt;div&gt;&lt;font face=&quot;Tahoma&quot;&gt;&lt;b&gt;9-91&lt;/b&gt;&lt;br&gt;&lt;/font&gt;&lt;/div&gt;" style="text;html=1;strokeColor=none;fillColor=none;align=left;verticalAlign=middle;whiteSpace=wrap;rounded=0;fontSize=16;" parent="1" vertex="1">
          <mxGeometry x="-920" y="-75.5" width="50" height="31" as="geometry" />
        </mxCell>
        <mxCell id="-pU3nQpz12ux-RrfOw-z-37" style="edgeStyle=none;shape=connector;rounded=1;orthogonalLoop=1;jettySize=auto;html=1;exitX=0;exitY=1;exitDx=0;exitDy=0;entryX=1;entryY=1;entryDx=0;entryDy=0;strokeColor=#A3A2A5;strokeWidth=5;align=left;verticalAlign=middle;fontFamily=Helvetica;fontSize=16;fontColor=default;labelBackgroundColor=default;endArrow=none;endFill=0;dashed=1;dashPattern=1 1;" parent="1" source="-pU3nQpz12ux-RrfOw-z-45" target="-pU3nQpz12ux-RrfOw-z-17" edge="1">
          <mxGeometry relative="1" as="geometry">
            <mxPoint x="-710" y="-459.5" as="sourcePoint" />
            <Array as="points">
              <mxPoint x="-880" y="-400" />
            </Array>
          </mxGeometry>
        </mxCell>
        <mxCell id="-pU3nQpz12ux-RrfOw-z-44" value="&lt;div&gt;&lt;font face=&quot;Tahoma&quot;&gt;&lt;b&gt;7-143: &lt;/b&gt;Engine Room&lt;br&gt;&lt;/font&gt;&lt;/div&gt;" style="text;html=1;strokeColor=none;fillColor=none;align=left;verticalAlign=middle;whiteSpace=wrap;rounded=0;fontSize=16;" parent="1" vertex="1">
          <mxGeometry x="-680" y="-471.87" width="200" height="24.75" as="geometry" />
        </mxCell>
        <mxCell id="-pU3nQpz12ux-RrfOw-z-46" value="" style="edgeStyle=none;shape=connector;rounded=1;orthogonalLoop=1;jettySize=auto;html=1;exitX=0.066;exitY=0.87;exitDx=0;exitDy=0;entryX=1;entryY=1;entryDx=0;entryDy=0;strokeColor=#A3A2A5;strokeWidth=5;align=left;verticalAlign=middle;fontFamily=Helvetica;fontSize=16;fontColor=default;labelBackgroundColor=default;endArrow=none;endFill=0;dashed=1;dashPattern=1 1;exitPerimeter=0;" parent="1" source="-pU3nQpz12ux-RrfOw-z-42" target="-pU3nQpz12ux-RrfOw-z-45" edge="1">
          <mxGeometry relative="1" as="geometry">
            <mxPoint x="-710" y="-459.5" as="sourcePoint" />
            <mxPoint x="-930" y="-459" as="targetPoint" />
            <Array as="points">
              <mxPoint x="-760" y="-400" />
            </Array>
          </mxGeometry>
        </mxCell>
        <mxCell id="-pU3nQpz12ux-RrfOw-z-47" value="" style="rounded=1;orthogonalLoop=1;jettySize=auto;html=1;exitX=0.5;exitY=1;exitDx=0;exitDy=0;strokeColor=#037B35;strokeWidth=5;endArrow=none;endFill=0;align=left;fontSize=16;" parent="1" source="-pU3nQpz12ux-RrfOw-z-4" target="-pU3nQpz12ux-RrfOw-z-45" edge="1">
          <mxGeometry relative="1" as="geometry">
            <mxPoint x="-244" y="-850" as="sourcePoint" />
            <mxPoint x="-820" y="-460" as="targetPoint" />
            <Array as="points">
              <mxPoint x="-700" y="-800" />
              <mxPoint x="-820" y="-800" />
            </Array>
          </mxGeometry>
        </mxCell>
        <mxCell id="-pU3nQpz12ux-RrfOw-z-45" value="" style="ellipse;whiteSpace=wrap;html=1;aspect=fixed;strokeWidth=5;fillColor=#000000;align=left;fontSize=16;" parent="1" vertex="1">
          <mxGeometry x="-824.76" y="-464.25" width="9.5" height="9.5" as="geometry" />
        </mxCell>
        <mxCell id="-pU3nQpz12ux-RrfOw-z-48" value="&lt;div&gt;&lt;font face=&quot;Tahoma&quot;&gt;&lt;b&gt;7-144&lt;/b&gt;&lt;/font&gt;&lt;/div&gt;" style="text;html=1;strokeColor=none;fillColor=none;align=left;verticalAlign=middle;whiteSpace=wrap;rounded=0;fontSize=16;" parent="1" vertex="1">
          <mxGeometry x="-802.88" y="-474.25" width="52.88" height="24.75" as="geometry" />
        </mxCell>
        <mxCell id="-pU3nQpz12ux-RrfOw-z-101" style="edgeStyle=none;shape=connector;rounded=1;orthogonalLoop=1;jettySize=auto;html=1;exitX=1;exitY=1;exitDx=0;exitDy=0;entryX=0;entryY=1;entryDx=0;entryDy=0;strokeColor=#A3A2A5;strokeWidth=5;align=center;verticalAlign=middle;fontFamily=Helvetica;fontSize=16;fontColor=default;labelBackgroundColor=default;endArrow=none;endFill=0;dashed=1;dashPattern=1 1;" parent="1" source="-pU3nQpz12ux-RrfOw-z-1" target="-pU3nQpz12ux-RrfOw-z-11" edge="1">
          <mxGeometry relative="1" as="geometry">
            <Array as="points">
              <mxPoint x="-400" y="-800" />
              <mxPoint x="-280" y="-800" />
            </Array>
          </mxGeometry>
        </mxCell>
        <mxCell id="-pU3nQpz12ux-RrfOw-z-1" value="" style="ellipse;whiteSpace=wrap;html=1;aspect=fixed;strokeWidth=5;align=left;fontSize=16;" parent="1" vertex="1">
          <mxGeometry x="-470" y="-870" width="20" height="20" as="geometry" />
        </mxCell>
        <mxCell id="-pU3nQpz12ux-RrfOw-z-158" style="edgeStyle=none;shape=connector;rounded=1;orthogonalLoop=1;jettySize=auto;html=1;exitX=1;exitY=1;exitDx=0;exitDy=0;entryX=0.053;entryY=0.869;entryDx=0;entryDy=0;strokeColor=#A3A2A5;strokeWidth=5;align=center;verticalAlign=middle;fontFamily=Helvetica;fontSize=11;fontColor=default;labelBackgroundColor=default;endArrow=none;endFill=0;dashed=1;dashPattern=1 1;entryPerimeter=0;" parent="1" source="-pU3nQpz12ux-RrfOw-z-52" target="-pU3nQpz12ux-RrfOw-z-157" edge="1">
          <mxGeometry relative="1" as="geometry">
            <Array as="points">
              <mxPoint x="80" y="-800" />
              <mxPoint x="200" y="-800" />
            </Array>
          </mxGeometry>
        </mxCell>
        <mxCell id="-pU3nQpz12ux-RrfOw-z-52" value="" style="ellipse;whiteSpace=wrap;html=1;aspect=fixed;strokeWidth=5;align=left;fontSize=16;" parent="1" vertex="1">
          <mxGeometry x="14.25" y="-870" width="20" height="20" as="geometry" />
        </mxCell>
        <mxCell id="-pU3nQpz12ux-RrfOw-z-53" value="&lt;div&gt;&lt;font face=&quot;Tahoma&quot;&gt;&lt;b&gt;5-137: &lt;/b&gt;Varumani Command&lt;br&gt;&lt;/font&gt;&lt;/div&gt;" style="text;html=1;strokeColor=none;fillColor=none;align=left;verticalAlign=middle;whiteSpace=wrap;rounded=0;fontSize=16;" parent="1" vertex="1">
          <mxGeometry x="20" y="-896.87" width="260" height="23.12" as="geometry" />
        </mxCell>
        <mxCell id="-pU3nQpz12ux-RrfOw-z-55" style="edgeStyle=none;shape=connector;rounded=1;orthogonalLoop=1;jettySize=auto;html=1;exitX=1;exitY=1;exitDx=0;exitDy=0;entryX=0;entryY=1;entryDx=0;entryDy=0;strokeColor=#A3A2A5;strokeWidth=5;align=left;verticalAlign=middle;fontFamily=Helvetica;fontSize=16;fontColor=default;labelBackgroundColor=default;endArrow=none;endFill=0;dashed=1;dashPattern=1 1;" parent="1" source="-pU3nQpz12ux-RrfOw-z-56" target="-pU3nQpz12ux-RrfOw-z-27" edge="1">
          <mxGeometry relative="1" as="geometry">
            <mxPoint x="-710" y="-665.25" as="sourcePoint" />
            <mxPoint x="-930" y="-664.75" as="targetPoint" />
            <Array as="points">
              <mxPoint x="-1000" y="-600" />
            </Array>
          </mxGeometry>
        </mxCell>
        <mxCell id="-pU3nQpz12ux-RrfOw-z-59" style="edgeStyle=none;shape=connector;rounded=1;orthogonalLoop=1;jettySize=auto;html=1;entryX=0.471;entryY=1.249;entryDx=0;entryDy=0;strokeColor=#037B35;strokeWidth=5;align=left;verticalAlign=middle;fontFamily=Helvetica;fontSize=16;fontColor=default;labelBackgroundColor=default;endArrow=none;endFill=0;entryPerimeter=0;exitX=0.5;exitY=0;exitDx=0;exitDy=0;" parent="1" source="-pU3nQpz12ux-RrfOw-z-56" target="-pU3nQpz12ux-RrfOw-z-60" edge="1">
          <mxGeometry relative="1" as="geometry">
            <mxPoint x="-820" y="-670" as="sourcePoint" />
            <mxPoint x="-700" y="-850" as="targetPoint" />
          </mxGeometry>
        </mxCell>
        <mxCell id="-pU3nQpz12ux-RrfOw-z-65" style="edgeStyle=none;shape=connector;rounded=1;orthogonalLoop=1;jettySize=auto;html=1;exitX=0.471;exitY=1.222;exitDx=0;exitDy=0;entryX=0.5;entryY=0;entryDx=0;entryDy=0;strokeColor=#037B35;strokeWidth=5;align=left;verticalAlign=middle;fontFamily=Helvetica;fontSize=16;fontColor=default;labelBackgroundColor=default;endArrow=none;endFill=0;exitPerimeter=0;" parent="1" source="-pU3nQpz12ux-RrfOw-z-56" target="-pU3nQpz12ux-RrfOw-z-63" edge="1">
          <mxGeometry relative="1" as="geometry">
            <Array as="points">
              <mxPoint x="-1060" y="-600" />
              <mxPoint x="-1180" y="-520" />
            </Array>
          </mxGeometry>
        </mxCell>
        <mxCell id="-pU3nQpz12ux-RrfOw-z-56" value="" style="ellipse;whiteSpace=wrap;html=1;aspect=fixed;strokeWidth=5;fillColor=#000000;align=left;fontSize=16;" parent="1" vertex="1">
          <mxGeometry x="-1064" y="-664.75" width="9.5" height="9.5" as="geometry" />
        </mxCell>
        <mxCell id="-pU3nQpz12ux-RrfOw-z-57" value="&lt;div&gt;&lt;font face=&quot;Tahoma&quot;&gt;&lt;b&gt;6-162&lt;/b&gt;&lt;/font&gt;&lt;/div&gt;" style="text;html=1;strokeColor=none;fillColor=none;align=left;verticalAlign=middle;whiteSpace=wrap;rounded=0;fontSize=16;" parent="1" vertex="1">
          <mxGeometry x="-1130" y="-672.37" width="52.88" height="24.75" as="geometry" />
        </mxCell>
        <mxCell id="-pU3nQpz12ux-RrfOw-z-111" style="edgeStyle=none;shape=connector;rounded=1;orthogonalLoop=1;jettySize=auto;html=1;exitX=0;exitY=0.5;exitDx=0;exitDy=0;entryX=1;entryY=0.5;entryDx=0;entryDy=0;strokeColor=#037B35;strokeWidth=5;align=center;verticalAlign=middle;fontFamily=Helvetica;fontSize=11;fontColor=default;labelBackgroundColor=default;endArrow=none;endFill=0;" parent="1" source="-pU3nQpz12ux-RrfOw-z-60" target="-pU3nQpz12ux-RrfOw-z-108" edge="1">
          <mxGeometry relative="1" as="geometry" />
        </mxCell>
        <mxCell id="-pU3nQpz12ux-RrfOw-z-62" value="&lt;font face=&quot;Tahoma&quot;&gt;&lt;b&gt;5-31&lt;/b&gt;&lt;/font&gt;" style="text;html=1;strokeColor=none;fillColor=none;align=left;verticalAlign=middle;whiteSpace=wrap;rounded=0;fontSize=16;" parent="1" vertex="1">
          <mxGeometry x="-1040" y="-873.75" width="42.88" height="24.75" as="geometry" />
        </mxCell>
        <mxCell id="-pU3nQpz12ux-RrfOw-z-67" style="edgeStyle=none;shape=connector;rounded=1;orthogonalLoop=1;jettySize=auto;html=1;exitX=1;exitY=0.5;exitDx=0;exitDy=0;entryX=0;entryY=0.5;entryDx=0;entryDy=0;strokeColor=#037B35;strokeWidth=5;align=left;verticalAlign=middle;fontFamily=Helvetica;fontSize=16;fontColor=default;labelBackgroundColor=default;endArrow=none;endFill=0;" parent="1" source="-pU3nQpz12ux-RrfOw-z-63" target="-pU3nQpz12ux-RrfOw-z-66" edge="1">
          <mxGeometry relative="1" as="geometry" />
        </mxCell>
        <mxCell id="-pU3nQpz12ux-RrfOw-z-63" value="" style="ellipse;whiteSpace=wrap;html=1;aspect=fixed;strokeWidth=5;align=left;fontSize=16;" parent="1" vertex="1">
          <mxGeometry x="-1190" y="-470.5" width="20" height="20" as="geometry" />
        </mxCell>
        <mxCell id="-pU3nQpz12ux-RrfOw-z-64" value="&lt;div&gt;&lt;font face=&quot;Tahoma&quot;&gt;&lt;b&gt;7-6: &lt;/b&gt;Floating Garden&lt;br&gt;&lt;/font&gt;&lt;/div&gt;" style="text;html=1;strokeColor=none;fillColor=none;align=left;verticalAlign=middle;whiteSpace=wrap;rounded=0;fontSize=16;" parent="1" vertex="1">
          <mxGeometry x="-1160" y="-477.62" width="155" height="25.25" as="geometry" />
        </mxCell>
        <mxCell id="-pU3nQpz12ux-RrfOw-z-71" style="edgeStyle=none;shape=connector;rounded=1;orthogonalLoop=1;jettySize=auto;html=1;exitX=0;exitY=1;exitDx=0;exitDy=0;entryX=0.91;entryY=1.013;entryDx=0;entryDy=0;strokeColor=#A3A2A5;strokeWidth=5;align=left;verticalAlign=middle;fontFamily=Helvetica;fontSize=16;fontColor=default;labelBackgroundColor=default;endArrow=none;endFill=0;dashed=1;dashPattern=1 1;entryPerimeter=0;" parent="1" source="-pU3nQpz12ux-RrfOw-z-66" target="-pU3nQpz12ux-RrfOw-z-69" edge="1">
          <mxGeometry relative="1" as="geometry">
            <Array as="points">
              <mxPoint x="-1360" y="-400" />
            </Array>
          </mxGeometry>
        </mxCell>
        <mxCell id="-pU3nQpz12ux-RrfOw-z-73" style="edgeStyle=none;shape=connector;rounded=1;orthogonalLoop=1;jettySize=auto;html=1;exitX=0.5;exitY=1;exitDx=0;exitDy=0;entryX=0.5;entryY=0;entryDx=0;entryDy=0;strokeColor=#037B35;strokeWidth=5;align=left;verticalAlign=middle;fontFamily=Helvetica;fontSize=16;fontColor=default;labelBackgroundColor=default;endArrow=none;endFill=0;" parent="1" source="-pU3nQpz12ux-RrfOw-z-66" target="-pU3nQpz12ux-RrfOw-z-72" edge="1">
          <mxGeometry relative="1" as="geometry" />
        </mxCell>
        <mxCell id="-pU3nQpz12ux-RrfOw-z-66" value="" style="ellipse;whiteSpace=wrap;html=1;aspect=fixed;strokeWidth=5;fillColor=#000000;align=left;fontSize=16;" parent="1" vertex="1">
          <mxGeometry x="-1305" y="-465.25" width="9.5" height="9.5" as="geometry" />
        </mxCell>
        <mxCell id="-pU3nQpz12ux-RrfOw-z-68" value="&lt;div&gt;&lt;font face=&quot;Tahoma&quot;&gt;&lt;b&gt;7-110&lt;/b&gt;&lt;/font&gt;&lt;/div&gt;" style="text;html=1;strokeColor=none;fillColor=none;align=left;verticalAlign=middle;whiteSpace=wrap;rounded=0;fontSize=16;" parent="1" vertex="1">
          <mxGeometry x="-1365.62" y="-472.87" width="53.12" height="24.75" as="geometry" />
        </mxCell>
        <mxCell id="-pU3nQpz12ux-RrfOw-z-69" value="" style="ellipse;whiteSpace=wrap;html=1;aspect=fixed;strokeWidth=5;align=left;fontSize=16;" parent="1" vertex="1">
          <mxGeometry x="-1430" y="-469.5" width="20" height="20" as="geometry" />
        </mxCell>
        <mxCell id="-pU3nQpz12ux-RrfOw-z-70" value="&lt;div&gt;&lt;font face=&quot;Tahoma&quot;&gt;&lt;b&gt;7-109: &lt;/b&gt;Control Hall&lt;br&gt;&lt;/font&gt;&lt;/div&gt;" style="text;html=1;strokeColor=none;fillColor=none;align=right;verticalAlign=middle;whiteSpace=wrap;rounded=0;fontSize=16;" parent="1" vertex="1">
          <mxGeometry x="-1600" y="-472.87" width="160" height="24.75" as="geometry" />
        </mxCell>
        <mxCell id="-pU3nQpz12ux-RrfOw-z-74" value="&lt;font face=&quot;Tahoma&quot;&gt;&lt;b&gt;9-97&lt;/b&gt;&lt;/font&gt;" style="text;html=1;strokeColor=none;fillColor=none;align=left;verticalAlign=middle;whiteSpace=wrap;rounded=0;fontSize=16;" parent="1" vertex="1">
          <mxGeometry x="-1356" y="-72.38" width="45.75" height="24.75" as="geometry" />
        </mxCell>
        <mxCell id="-pU3nQpz12ux-RrfOw-z-75" style="edgeStyle=none;shape=connector;rounded=1;orthogonalLoop=1;jettySize=auto;html=1;exitX=0.077;exitY=1.085;exitDx=0;exitDy=0;strokeColor=#A3A2A5;strokeWidth=5;align=left;verticalAlign=middle;fontFamily=Helvetica;fontSize=16;fontColor=default;labelBackgroundColor=default;endArrow=none;endFill=0;dashed=1;dashPattern=1 1;exitPerimeter=0;" parent="1" source="-pU3nQpz12ux-RrfOw-z-72" target="-pU3nQpz12ux-RrfOw-z-76" edge="1">
          <mxGeometry relative="1" as="geometry">
            <mxPoint x="-336" y="-258.5" as="sourcePoint" />
            <Array as="points">
              <mxPoint x="-1360" y="-200" />
            </Array>
          </mxGeometry>
        </mxCell>
        <mxCell id="-pU3nQpz12ux-RrfOw-z-76" value="" style="ellipse;whiteSpace=wrap;html=1;aspect=fixed;strokeWidth=5;align=left;fontSize=16;" parent="1" vertex="1">
          <mxGeometry x="-1430" y="-269.99" width="20" height="20" as="geometry" />
        </mxCell>
        <mxCell id="-pU3nQpz12ux-RrfOw-z-77" value="&lt;div&gt;&lt;font face=&quot;Tahoma&quot;&gt;&lt;b&gt;8-53: &lt;/b&gt;Detention Block&lt;br&gt;&lt;/font&gt;&lt;/div&gt;" style="text;html=1;strokeColor=none;fillColor=none;align=right;verticalAlign=middle;whiteSpace=wrap;rounded=0;fontSize=16;" parent="1" vertex="1">
          <mxGeometry x="-1610" y="-272.62" width="170" height="25.01" as="geometry" />
        </mxCell>
        <mxCell id="-pU3nQpz12ux-RrfOw-z-84" style="edgeStyle=none;shape=connector;rounded=1;orthogonalLoop=1;jettySize=auto;html=1;exitX=0.5;exitY=1;exitDx=0;exitDy=0;entryX=0.5;entryY=0;entryDx=0;entryDy=0;strokeColor=#037B35;strokeWidth=5;align=center;verticalAlign=middle;fontFamily=Helvetica;fontSize=16;fontColor=default;labelBackgroundColor=default;endArrow=none;endFill=0;" parent="1" source="-pU3nQpz12ux-RrfOw-z-72" target="-pU3nQpz12ux-RrfOw-z-81" edge="1">
          <mxGeometry relative="1" as="geometry" />
        </mxCell>
        <mxCell id="-pU3nQpz12ux-RrfOw-z-72" value="" style="ellipse;whiteSpace=wrap;html=1;aspect=fixed;strokeWidth=5;fillColor=#000000;align=left;fontSize=16;" parent="1" vertex="1">
          <mxGeometry x="-1305" y="-264.74" width="9.5" height="9.5" as="geometry" />
        </mxCell>
        <mxCell id="-pU3nQpz12ux-RrfOw-z-82" style="edgeStyle=none;shape=connector;rounded=1;orthogonalLoop=1;jettySize=auto;html=1;exitX=0;exitY=1;exitDx=0;exitDy=0;entryX=0.897;entryY=1.086;entryDx=0;entryDy=0;strokeColor=#A3A2A5;strokeWidth=5;align=center;verticalAlign=middle;fontFamily=Helvetica;fontSize=16;fontColor=default;labelBackgroundColor=default;endArrow=none;endFill=0;dashed=1;dashPattern=1 1;entryPerimeter=0;" parent="1" source="-pU3nQpz12ux-RrfOw-z-78" target="-pU3nQpz12ux-RrfOw-z-81" edge="1">
          <mxGeometry relative="1" as="geometry">
            <Array as="points">
              <mxPoint x="-1240" />
            </Array>
          </mxGeometry>
        </mxCell>
        <mxCell id="-pU3nQpz12ux-RrfOw-z-78" value="" style="ellipse;whiteSpace=wrap;html=1;aspect=fixed;strokeWidth=5;align=left;fontSize=16;" parent="1" vertex="1">
          <mxGeometry x="-1190" y="-70" width="20" height="20" as="geometry" />
        </mxCell>
        <mxCell id="-pU3nQpz12ux-RrfOw-z-79" value="&lt;div&gt;&lt;font face=&quot;Tahoma&quot;&gt;&lt;b&gt;9-96: &lt;/b&gt;Rudishva Bastion&lt;br&gt;&lt;/font&gt;&lt;/div&gt;" style="text;html=1;strokeColor=none;fillColor=none;align=left;verticalAlign=middle;whiteSpace=wrap;rounded=0;fontSize=16;" parent="1" vertex="1">
          <mxGeometry x="-1190" y="-100" width="170" height="27.62" as="geometry" />
        </mxCell>
        <mxCell id="-pU3nQpz12ux-RrfOw-z-98" style="edgeStyle=none;shape=connector;rounded=1;orthogonalLoop=1;jettySize=auto;html=1;exitX=0.5;exitY=1;exitDx=0;exitDy=0;entryX=0.5;entryY=0;entryDx=0;entryDy=0;strokeColor=#037B35;strokeWidth=5;align=center;verticalAlign=middle;fontFamily=Helvetica;fontSize=16;fontColor=default;labelBackgroundColor=default;endArrow=none;endFill=0;" parent="1" source="-pU3nQpz12ux-RrfOw-z-81" target="-pU3nQpz12ux-RrfOw-z-88" edge="1">
          <mxGeometry relative="1" as="geometry" />
        </mxCell>
        <mxCell id="-pU3nQpz12ux-RrfOw-z-99" style="edgeStyle=none;shape=connector;rounded=1;orthogonalLoop=1;jettySize=auto;html=1;exitX=0.5;exitY=1;exitDx=0;exitDy=0;entryX=0.5;entryY=0;entryDx=0;entryDy=0;strokeColor=#037B35;strokeWidth=5;align=center;verticalAlign=middle;fontFamily=Helvetica;fontSize=16;fontColor=default;labelBackgroundColor=default;endArrow=none;endFill=0;" parent="1" source="-pU3nQpz12ux-RrfOw-z-81" target="-pU3nQpz12ux-RrfOw-z-85" edge="1">
          <mxGeometry relative="1" as="geometry">
            <Array as="points">
              <mxPoint x="-1300" y="120" />
              <mxPoint x="-1540" y="120" />
            </Array>
          </mxGeometry>
        </mxCell>
        <mxCell id="-pU3nQpz12ux-RrfOw-z-81" value="" style="ellipse;whiteSpace=wrap;html=1;aspect=fixed;strokeWidth=5;fillColor=#000000;align=left;fontSize=16;" parent="1" vertex="1">
          <mxGeometry x="-1305" y="-64.75" width="9.5" height="9.5" as="geometry" />
        </mxCell>
        <mxCell id="-pU3nQpz12ux-RrfOw-z-83" value="&lt;font face=&quot;Tahoma&quot;&gt;&lt;b&gt;8-52&lt;/b&gt;&lt;/font&gt;" style="text;html=1;strokeColor=none;fillColor=none;align=left;verticalAlign=middle;whiteSpace=wrap;rounded=0;fontSize=16;" parent="1" vertex="1">
          <mxGeometry x="-1353.75" y="-272.62" width="41.25" height="24.75" as="geometry" />
        </mxCell>
        <mxCell id="-pU3nQpz12ux-RrfOw-z-152" style="edgeStyle=none;shape=connector;rounded=1;orthogonalLoop=1;jettySize=auto;html=1;exitX=0.5;exitY=1;exitDx=0;exitDy=0;entryX=0.5;entryY=0;entryDx=0;entryDy=0;strokeColor=#037B35;strokeWidth=5;align=center;verticalAlign=middle;fontFamily=Helvetica;fontSize=11;fontColor=default;labelBackgroundColor=default;endArrow=none;endFill=0;" parent="1" source="-pU3nQpz12ux-RrfOw-z-85" target="-pU3nQpz12ux-RrfOw-z-4" edge="1">
          <mxGeometry relative="1" as="geometry">
            <Array as="points">
              <mxPoint x="-1540" y="240" />
              <mxPoint x="-2040" y="240" />
              <mxPoint x="-2040" y="-960" />
              <mxPoint x="-700" y="-960" />
            </Array>
          </mxGeometry>
        </mxCell>
        <mxCell id="-pU3nQpz12ux-RrfOw-z-85" value="" style="ellipse;whiteSpace=wrap;html=1;aspect=fixed;strokeWidth=5;align=left;fontSize=16;" parent="1" vertex="1">
          <mxGeometry x="-1550" y="170" width="20" height="20" as="geometry" />
        </mxCell>
        <mxCell id="-pU3nQpz12ux-RrfOw-z-86" value="&lt;div&gt;&lt;font face=&quot;Tahoma&quot;&gt;&lt;b&gt;SL13-38:&lt;/b&gt; Shuttle Bay&lt;br&gt;&lt;/font&gt;&lt;/div&gt;" style="text;html=1;strokeColor=none;fillColor=none;align=left;verticalAlign=middle;whiteSpace=wrap;rounded=0;fontSize=16;" parent="1" vertex="1">
          <mxGeometry x="-1284" y="167.25" width="220" height="25.5" as="geometry" />
        </mxCell>
        <mxCell id="-pU3nQpz12ux-RrfOw-z-88" value="" style="ellipse;whiteSpace=wrap;html=1;aspect=fixed;strokeWidth=5;align=left;fontSize=16;" parent="1" vertex="1">
          <mxGeometry x="-1310.25" y="170" width="20" height="20" as="geometry" />
        </mxCell>
        <mxCell id="-pU3nQpz12ux-RrfOw-z-90" value="&lt;div&gt;&lt;font face=&quot;Tahoma&quot;&gt;&lt;b&gt;SL14-7:&lt;/b&gt; Chamber of the Beacon&lt;br&gt;&lt;/font&gt;&lt;/div&gt;" style="text;html=1;strokeColor=none;fillColor=none;align=left;verticalAlign=middle;whiteSpace=wrap;rounded=0;fontSize=16;" parent="1" vertex="1">
          <mxGeometry x="-1790" y="167.25" width="240" height="25.5" as="geometry" />
        </mxCell>
        <mxCell id="-pU3nQpz12ux-RrfOw-z-164" style="edgeStyle=none;shape=connector;rounded=1;orthogonalLoop=1;jettySize=auto;html=1;exitX=1;exitY=1;exitDx=0;exitDy=0;entryX=0;entryY=1;entryDx=0;entryDy=0;strokeColor=#A3A2A5;strokeWidth=5;align=center;verticalAlign=middle;fontFamily=Helvetica;fontSize=11;fontColor=default;labelBackgroundColor=default;endArrow=none;endFill=0;dashed=1;dashPattern=1 1;" parent="1" source="-pU3nQpz12ux-RrfOw-z-92" target="-pU3nQpz12ux-RrfOw-z-160" edge="1">
          <mxGeometry relative="1" as="geometry">
            <Array as="points">
              <mxPoint x="-160" y="-600" />
              <mxPoint x="200" y="-600" />
            </Array>
          </mxGeometry>
        </mxCell>
        <mxCell id="-pU3nQpz12ux-RrfOw-z-92" value="" style="ellipse;whiteSpace=wrap;html=1;aspect=fixed;strokeWidth=5;align=left;fontSize=16;" parent="1" vertex="1">
          <mxGeometry x="-230" y="-671.87" width="20" height="20" as="geometry" />
        </mxCell>
        <mxCell id="-pU3nQpz12ux-RrfOw-z-93" value="&lt;div&gt;&lt;font face=&quot;Tahoma&quot;&gt;&lt;b&gt;SL2-2:&lt;/b&gt; Deep-space Containment Units&lt;br&gt;&lt;/font&gt;&lt;/div&gt;" style="text;html=1;strokeColor=none;fillColor=none;align=left;verticalAlign=middle;whiteSpace=wrap;rounded=0;fontSize=16;" parent="1" vertex="1">
          <mxGeometry x="-60" y="-735" width="370" height="30" as="geometry" />
        </mxCell>
        <mxCell id="-pU3nQpz12ux-RrfOw-z-17" value="" style="ellipse;whiteSpace=wrap;html=1;aspect=fixed;strokeWidth=5;align=left;fontSize=16;" parent="1" vertex="1">
          <mxGeometry x="-950" y="-469.5" width="20" height="20" as="geometry" />
        </mxCell>
        <mxCell id="-pU3nQpz12ux-RrfOw-z-27" value="" style="ellipse;whiteSpace=wrap;html=1;aspect=fixed;strokeWidth=5;align=left;fontSize=16;" parent="1" vertex="1">
          <mxGeometry x="-950" y="-670" width="20" height="20" as="geometry" />
        </mxCell>
        <mxCell id="-pU3nQpz12ux-RrfOw-z-42" value="" style="ellipse;whiteSpace=wrap;html=1;aspect=fixed;strokeWidth=5;align=left;fontSize=16;" parent="1" vertex="1">
          <mxGeometry x="-710" y="-469.5" width="20" height="20" as="geometry" />
        </mxCell>
        <mxCell id="-pU3nQpz12ux-RrfOw-z-4" value="" style="ellipse;whiteSpace=wrap;html=1;aspect=fixed;strokeWidth=5;align=left;fontSize=16;" parent="1" vertex="1">
          <mxGeometry x="-710" y="-870" width="20" height="20" as="geometry" />
        </mxCell>
        <mxCell id="-pU3nQpz12ux-RrfOw-z-110" style="edgeStyle=none;shape=connector;rounded=1;orthogonalLoop=1;jettySize=auto;html=1;exitX=1;exitY=1;exitDx=0;exitDy=0;entryX=0.078;entryY=0.833;entryDx=0;entryDy=0;strokeColor=#A3A2A5;strokeWidth=5;align=center;verticalAlign=middle;fontFamily=Helvetica;fontSize=16;fontColor=default;labelBackgroundColor=default;endArrow=none;endFill=0;dashed=1;dashPattern=1 1;entryPerimeter=0;" parent="1" source="-pU3nQpz12ux-RrfOw-z-60" target="-pU3nQpz12ux-RrfOw-z-24" edge="1">
          <mxGeometry relative="1" as="geometry">
            <Array as="points">
              <mxPoint x="-1000" y="-800" />
            </Array>
          </mxGeometry>
        </mxCell>
        <mxCell id="-pU3nQpz12ux-RrfOw-z-125" style="edgeStyle=none;shape=connector;rounded=1;orthogonalLoop=1;jettySize=auto;html=1;exitX=0;exitY=0.5;exitDx=0;exitDy=0;entryX=1;entryY=0.5;entryDx=0;entryDy=0;strokeColor=#037B35;strokeWidth=5;align=center;verticalAlign=middle;fontFamily=Helvetica;fontSize=11;fontColor=default;labelBackgroundColor=default;endArrow=none;endFill=0;" parent="1" source="-pU3nQpz12ux-RrfOw-z-108" target="-pU3nQpz12ux-RrfOw-z-115" edge="1">
          <mxGeometry relative="1" as="geometry" />
        </mxCell>
        <mxCell id="-pU3nQpz12ux-RrfOw-z-109" value="&lt;div&gt;&lt;font face=&quot;Tahoma&quot;&gt;&lt;b&gt;SL6-3: &lt;/b&gt;Drowned Canyon&lt;br&gt;&lt;/font&gt;&lt;/div&gt;" style="text;html=1;strokeColor=none;fillColor=none;align=left;verticalAlign=middle;whiteSpace=wrap;rounded=0;fontSize=16;" parent="1" vertex="1">
          <mxGeometry x="-1380" y="-732.75" width="182.75" height="25.5" as="geometry" />
        </mxCell>
        <mxCell id="-pU3nQpz12ux-RrfOw-z-112" value="" style="ellipse;whiteSpace=wrap;html=1;aspect=fixed;strokeWidth=5;align=left;fontSize=16;" parent="1" vertex="1">
          <mxGeometry x="-1190" y="-730" width="20" height="20" as="geometry" />
        </mxCell>
        <mxCell id="-pU3nQpz12ux-RrfOw-z-113" style="edgeStyle=none;shape=connector;rounded=1;orthogonalLoop=1;jettySize=auto;html=1;exitX=0.5;exitY=1;exitDx=0;exitDy=0;strokeColor=#037B35;strokeWidth=5;align=center;verticalAlign=middle;fontFamily=Helvetica;fontSize=11;fontColor=default;labelBackgroundColor=default;endArrow=none;endFill=0;entryX=1;entryY=0.5;entryDx=0;entryDy=0;" parent="1" source="-pU3nQpz12ux-RrfOw-z-60" target="-pU3nQpz12ux-RrfOw-z-112" edge="1">
          <mxGeometry relative="1" as="geometry">
            <mxPoint x="-1140" y="-710" as="targetPoint" />
            <Array as="points">
              <mxPoint x="-1060" y="-720" />
            </Array>
          </mxGeometry>
        </mxCell>
        <mxCell id="-pU3nQpz12ux-RrfOw-z-114" value="&lt;div&gt;&lt;font face=&quot;Tahoma&quot;&gt;&lt;b&gt;5-118: &lt;/b&gt;Armoury&lt;br&gt;&lt;/font&gt;&lt;/div&gt;" style="text;html=1;strokeColor=none;fillColor=none;align=right;verticalAlign=middle;whiteSpace=wrap;rounded=0;fontSize=16;" parent="1" vertex="1">
          <mxGeometry x="-1320" y="-858.25" width="130" height="25.5" as="geometry" />
        </mxCell>
        <mxCell id="-pU3nQpz12ux-RrfOw-z-128" style="edgeStyle=none;shape=connector;rounded=1;orthogonalLoop=1;jettySize=auto;html=1;exitX=0.5;exitY=1;exitDx=0;exitDy=0;entryX=0.5;entryY=0;entryDx=0;entryDy=0;strokeColor=#037B35;strokeWidth=5;align=center;verticalAlign=middle;fontFamily=Helvetica;fontSize=11;fontColor=default;labelBackgroundColor=default;endArrow=none;endFill=0;" parent="1" source="-pU3nQpz12ux-RrfOw-z-115" target="-pU3nQpz12ux-RrfOw-z-116" edge="1">
          <mxGeometry relative="1" as="geometry" />
        </mxCell>
        <mxCell id="-pU3nQpz12ux-RrfOw-z-127" style="edgeStyle=none;shape=connector;rounded=1;orthogonalLoop=1;jettySize=auto;html=1;exitX=0.5;exitY=0;exitDx=0;exitDy=0;entryX=0.5;entryY=1;entryDx=0;entryDy=0;strokeColor=#037B35;strokeWidth=5;align=center;verticalAlign=middle;fontFamily=Helvetica;fontSize=11;fontColor=default;labelBackgroundColor=default;endArrow=none;endFill=0;" parent="1" source="-pU3nQpz12ux-RrfOw-z-117" target="-pU3nQpz12ux-RrfOw-z-116" edge="1">
          <mxGeometry relative="1" as="geometry" />
        </mxCell>
        <mxCell id="-pU3nQpz12ux-RrfOw-z-129" style="edgeStyle=none;shape=connector;rounded=1;orthogonalLoop=1;jettySize=auto;html=1;exitX=1;exitY=0;exitDx=0;exitDy=0;entryX=1;entryY=1;entryDx=0;entryDy=0;strokeColor=#A3A2A5;strokeWidth=5;align=center;verticalAlign=middle;fontFamily=Helvetica;fontSize=11;fontColor=default;labelBackgroundColor=default;endArrow=none;endFill=0;dashed=1;dashPattern=1 1;" parent="1" source="-pU3nQpz12ux-RrfOw-z-117" target="-pU3nQpz12ux-RrfOw-z-116" edge="1">
          <mxGeometry relative="1" as="geometry">
            <Array as="points">
              <mxPoint x="-1390" y="-800" />
            </Array>
          </mxGeometry>
        </mxCell>
        <mxCell id="-pU3nQpz12ux-RrfOw-z-117" value="" style="ellipse;whiteSpace=wrap;html=1;aspect=fixed;strokeWidth=5;align=left;fontSize=16;" parent="1" vertex="1">
          <mxGeometry x="-1430" y="-792.7500000000001" width="20" height="20" as="geometry" />
        </mxCell>
        <mxCell id="-pU3nQpz12ux-RrfOw-z-118" value="&lt;div&gt;&lt;font face=&quot;Tahoma&quot;&gt;&lt;b&gt;5-110: &lt;/b&gt;Varuda Training Grounds&lt;br&gt;&lt;/font&gt;&lt;/div&gt;" style="text;html=1;strokeColor=none;fillColor=none;align=right;verticalAlign=middle;whiteSpace=wrap;rounded=0;fontSize=16;" parent="1" vertex="1">
          <mxGeometry x="-1690" y="-832.75" width="255" height="25.5" as="geometry" />
        </mxCell>
        <mxCell id="-pU3nQpz12ux-RrfOw-z-120" value="&lt;div&gt;&lt;font face=&quot;Tahoma&quot;&gt;&lt;b&gt;5-109: &lt;/b&gt;Elder Varuda Nests&lt;br&gt;&lt;/font&gt;&lt;/div&gt;" style="text;html=1;strokeColor=none;fillColor=none;align=right;verticalAlign=middle;whiteSpace=wrap;rounded=0;fontSize=16;" parent="1" vertex="1">
          <mxGeometry x="-1660" y="-873.75" width="225" height="25.5" as="geometry" />
        </mxCell>
        <mxCell id="-pU3nQpz12ux-RrfOw-z-121" value="&lt;div&gt;&lt;font face=&quot;Tahoma&quot;&gt;&lt;b&gt;5-112: &lt;/b&gt;Younger Varuda Nests&lt;br&gt;&lt;/font&gt;&lt;/div&gt;" style="text;html=1;strokeColor=none;fillColor=none;align=right;verticalAlign=middle;whiteSpace=wrap;rounded=0;fontSize=16;" parent="1" vertex="1">
          <mxGeometry x="-1680" y="-795.5" width="245" height="25.5" as="geometry" />
        </mxCell>
        <mxCell id="-pU3nQpz12ux-RrfOw-z-126" style="edgeStyle=none;shape=connector;rounded=1;orthogonalLoop=1;jettySize=auto;html=1;exitX=0.5;exitY=1;exitDx=0;exitDy=0;entryX=1;entryY=0.5;entryDx=0;entryDy=0;strokeColor=#037B35;strokeWidth=5;align=center;verticalAlign=middle;fontFamily=Helvetica;fontSize=11;fontColor=default;labelBackgroundColor=default;endArrow=none;endFill=0;" parent="1" source="-pU3nQpz12ux-RrfOw-z-108" target="-pU3nQpz12ux-RrfOw-z-117" edge="1">
          <mxGeometry relative="1" as="geometry">
            <Array as="points">
              <mxPoint x="-1180" y="-783" />
            </Array>
          </mxGeometry>
        </mxCell>
        <mxCell id="03BhAXGe4HA2jBTyms_U-1" style="rounded=1;orthogonalLoop=1;jettySize=auto;html=1;exitX=1;exitY=0;exitDx=0;exitDy=0;strokeWidth=5;strokeColor=#A3A2A5;endArrow=none;endFill=0;dashed=1;dashPattern=1 1;entryX=0;entryY=0;entryDx=0;entryDy=0;" parent="1" source="-pU3nQpz12ux-RrfOw-z-108" target="-pU3nQpz12ux-RrfOw-z-1" edge="1">
          <mxGeometry relative="1" as="geometry">
            <mxPoint x="-890" y="-920" as="targetPoint" />
            <Array as="points">
              <mxPoint x="-1120" y="-920" />
              <mxPoint x="-520" y="-920" />
            </Array>
          </mxGeometry>
        </mxCell>
        <mxCell id="-pU3nQpz12ux-RrfOw-z-108" value="" style="ellipse;whiteSpace=wrap;html=1;aspect=fixed;strokeWidth=5;align=left;fontSize=16;" parent="1" vertex="1">
          <mxGeometry x="-1190" y="-870" width="20" height="20" as="geometry" />
        </mxCell>
        <mxCell id="-pU3nQpz12ux-RrfOw-z-130" style="edgeStyle=none;shape=connector;rounded=1;orthogonalLoop=1;jettySize=auto;html=1;exitX=1;exitY=0;exitDx=0;exitDy=0;entryX=1;entryY=1;entryDx=0;entryDy=0;strokeColor=#A3A2A5;strokeWidth=5;align=center;verticalAlign=middle;fontFamily=Helvetica;fontSize=11;fontColor=default;labelBackgroundColor=default;endArrow=none;endFill=0;dashed=1;dashPattern=1 1;" parent="1" source="-pU3nQpz12ux-RrfOw-z-116" target="-pU3nQpz12ux-RrfOw-z-115" edge="1">
          <mxGeometry relative="1" as="geometry">
            <Array as="points">
              <mxPoint x="-1390" y="-840" />
            </Array>
          </mxGeometry>
        </mxCell>
        <mxCell id="-pU3nQpz12ux-RrfOw-z-116" value="" style="ellipse;whiteSpace=wrap;html=1;aspect=fixed;strokeWidth=5;align=left;fontSize=16;" parent="1" vertex="1">
          <mxGeometry x="-1430" y="-830" width="20" height="20" as="geometry" />
        </mxCell>
        <mxCell id="-pU3nQpz12ux-RrfOw-z-131" style="edgeStyle=none;shape=connector;rounded=1;orthogonalLoop=1;jettySize=auto;html=1;exitX=1;exitY=0;exitDx=0;exitDy=0;entryX=0;entryY=0;entryDx=0;entryDy=0;strokeColor=#A3A2A5;strokeWidth=5;align=center;verticalAlign=middle;fontFamily=Helvetica;fontSize=11;fontColor=default;labelBackgroundColor=default;endArrow=none;endFill=0;dashed=1;dashPattern=1 1;" parent="1" source="-pU3nQpz12ux-RrfOw-z-115" target="-pU3nQpz12ux-RrfOw-z-108" edge="1">
          <mxGeometry relative="1" as="geometry">
            <Array as="points">
              <mxPoint x="-1360" y="-920" />
              <mxPoint x="-1240" y="-920" />
            </Array>
          </mxGeometry>
        </mxCell>
        <mxCell id="-pU3nQpz12ux-RrfOw-z-135" value="&lt;div&gt;&lt;font face=&quot;Tahoma&quot;&gt;&lt;b&gt;5-106&lt;/b&gt;&lt;br&gt;&lt;/font&gt;&lt;/div&gt;" style="text;html=1;strokeColor=none;fillColor=none;align=left;verticalAlign=middle;whiteSpace=wrap;rounded=0;fontSize=16;" parent="1" vertex="1">
          <mxGeometry x="-1840" y="-872.25" width="50" height="25.5" as="geometry" />
        </mxCell>
        <mxCell id="-pU3nQpz12ux-RrfOw-z-139" style="edgeStyle=none;shape=connector;rounded=1;orthogonalLoop=1;jettySize=auto;html=1;exitX=0.5;exitY=1;exitDx=0;exitDy=0;entryX=0.5;entryY=0;entryDx=0;entryDy=0;strokeColor=#037B35;strokeWidth=5;align=center;verticalAlign=middle;fontFamily=Helvetica;fontSize=11;fontColor=default;labelBackgroundColor=default;endArrow=none;endFill=0;" parent="1" source="-pU3nQpz12ux-RrfOw-z-136" target="-pU3nQpz12ux-RrfOw-z-138" edge="1">
          <mxGeometry relative="1" as="geometry" />
        </mxCell>
        <mxCell id="-pU3nQpz12ux-RrfOw-z-153" style="edgeStyle=none;shape=connector;rounded=1;orthogonalLoop=1;jettySize=auto;html=1;exitX=1;exitY=0;exitDx=0;exitDy=0;entryX=0;entryY=0;entryDx=0;entryDy=0;strokeColor=#A3A2A5;strokeWidth=5;align=center;verticalAlign=middle;fontFamily=Helvetica;fontSize=11;fontColor=default;labelBackgroundColor=default;endArrow=none;endFill=0;dashed=1;dashPattern=1 1;" parent="1" source="-pU3nQpz12ux-RrfOw-z-136" target="-pU3nQpz12ux-RrfOw-z-115" edge="1">
          <mxGeometry relative="1" as="geometry">
            <Array as="points">
              <mxPoint x="-1720" y="-920" />
              <mxPoint x="-1480" y="-920" />
            </Array>
          </mxGeometry>
        </mxCell>
        <mxCell id="-pU3nQpz12ux-RrfOw-z-136" value="" style="ellipse;whiteSpace=wrap;html=1;aspect=fixed;strokeWidth=5;fillColor=#000000;align=left;fontSize=16;" parent="1" vertex="1">
          <mxGeometry x="-1785" y="-864.25" width="9.5" height="9.5" as="geometry" />
        </mxCell>
        <mxCell id="-pU3nQpz12ux-RrfOw-z-137" value="&lt;div&gt;&lt;font face=&quot;Tahoma&quot;&gt;&lt;b&gt;6-37&lt;br&gt;&lt;/b&gt;&lt;/font&gt;&lt;/div&gt;" style="text;html=1;strokeColor=none;fillColor=none;align=left;verticalAlign=middle;whiteSpace=wrap;rounded=0;fontSize=16;" parent="1" vertex="1">
          <mxGeometry x="-1835" y="-675.5" width="40" height="25.5" as="geometry" />
        </mxCell>
        <mxCell id="-pU3nQpz12ux-RrfOw-z-142" style="edgeStyle=none;shape=connector;rounded=1;orthogonalLoop=1;jettySize=auto;html=1;exitX=-0.06;exitY=0.85;exitDx=0;exitDy=0;strokeColor=#A3A2A5;strokeWidth=5;align=center;verticalAlign=middle;fontFamily=Helvetica;fontSize=11;fontColor=default;labelBackgroundColor=default;endArrow=none;endFill=0;entryX=1;entryY=1;entryDx=0;entryDy=0;dashed=1;dashPattern=1 1;exitPerimeter=0;" parent="1" source="-pU3nQpz12ux-RrfOw-z-138" target="-pU3nQpz12ux-RrfOw-z-140" edge="1">
          <mxGeometry relative="1" as="geometry">
            <mxPoint x="-1870" y="-660.8076923076924" as="targetPoint" />
            <Array as="points">
              <mxPoint x="-1840" y="-600" />
            </Array>
          </mxGeometry>
        </mxCell>
        <mxCell id="-pU3nQpz12ux-RrfOw-z-145" style="edgeStyle=none;shape=connector;rounded=1;orthogonalLoop=1;jettySize=auto;html=1;exitX=1;exitY=1;exitDx=0;exitDy=0;entryX=0;entryY=1;entryDx=0;entryDy=0;strokeColor=#A3A2A5;strokeWidth=5;align=center;verticalAlign=middle;fontFamily=Helvetica;fontSize=11;fontColor=default;labelBackgroundColor=default;endArrow=none;endFill=0;dashed=1;dashPattern=1 1;" parent="1" source="-pU3nQpz12ux-RrfOw-z-138" target="-pU3nQpz12ux-RrfOw-z-143" edge="1">
          <mxGeometry relative="1" as="geometry">
            <Array as="points">
              <mxPoint x="-1720" y="-600" />
            </Array>
          </mxGeometry>
        </mxCell>
        <mxCell id="-pU3nQpz12ux-RrfOw-z-138" value="" style="ellipse;whiteSpace=wrap;html=1;aspect=fixed;strokeWidth=5;fillColor=#000000;align=left;fontSize=16;" parent="1" vertex="1">
          <mxGeometry x="-1785" y="-665.62" width="9.5" height="9.5" as="geometry" />
        </mxCell>
        <mxCell id="-pU3nQpz12ux-RrfOw-z-150" style="edgeStyle=none;shape=connector;rounded=1;orthogonalLoop=1;jettySize=auto;html=1;exitX=0.5;exitY=1;exitDx=0;exitDy=0;entryX=0.5;entryY=0;entryDx=0;entryDy=0;strokeColor=#037B35;strokeWidth=5;align=center;verticalAlign=middle;fontFamily=Helvetica;fontSize=11;fontColor=default;labelBackgroundColor=default;endArrow=none;endFill=0;" parent="1" source="-pU3nQpz12ux-RrfOw-z-140" target="-pU3nQpz12ux-RrfOw-z-149" edge="1">
          <mxGeometry relative="1" as="geometry" />
        </mxCell>
        <mxCell id="-pU3nQpz12ux-RrfOw-z-140" value="" style="ellipse;whiteSpace=wrap;html=1;aspect=fixed;strokeWidth=5;fillColor=#000000;align=left;fontSize=16;" parent="1" vertex="1">
          <mxGeometry x="-1905" y="-665.62" width="9.5" height="9.5" as="geometry" />
        </mxCell>
        <mxCell id="-pU3nQpz12ux-RrfOw-z-141" value="&lt;div&gt;&lt;font face=&quot;Tahoma&quot;&gt;&lt;b&gt;6-32&lt;br&gt;&lt;/b&gt;&lt;/font&gt;&lt;/div&gt;" style="text;html=1;strokeColor=none;fillColor=none;align=left;verticalAlign=middle;whiteSpace=wrap;rounded=0;fontSize=16;" parent="1" vertex="1">
          <mxGeometry x="-1950" y="-673.62" width="40" height="25.5" as="geometry" />
        </mxCell>
        <mxCell id="-pU3nQpz12ux-RrfOw-z-147" style="edgeStyle=none;shape=connector;rounded=1;orthogonalLoop=1;jettySize=auto;html=1;exitX=1;exitY=0.5;exitDx=0;exitDy=0;entryX=0;entryY=0.5;entryDx=0;entryDy=0;strokeColor=#037B35;strokeWidth=5;align=center;verticalAlign=middle;fontFamily=Helvetica;fontSize=11;fontColor=default;labelBackgroundColor=default;endArrow=none;endFill=0;" parent="1" source="-pU3nQpz12ux-RrfOw-z-143" target="-pU3nQpz12ux-RrfOw-z-146" edge="1">
          <mxGeometry relative="1" as="geometry" />
        </mxCell>
        <mxCell id="-pU3nQpz12ux-RrfOw-z-143" value="" style="ellipse;whiteSpace=wrap;html=1;aspect=fixed;strokeWidth=5;align=left;fontSize=16;" parent="1" vertex="1">
          <mxGeometry x="-1670" y="-670.0000000000001" width="20" height="20" as="geometry" />
        </mxCell>
        <mxCell id="-pU3nQpz12ux-RrfOw-z-144" value="&lt;div&gt;&lt;font face=&quot;Tahoma&quot;&gt;&lt;b&gt;6-39:&lt;/b&gt; Lock Cavern&lt;br&gt;&lt;/font&gt;&lt;/div&gt;" style="text;html=1;strokeColor=none;fillColor=none;align=left;verticalAlign=middle;whiteSpace=wrap;rounded=0;fontSize=16;" parent="1" vertex="1">
          <mxGeometry x="-1665" y="-645" width="140" height="25.5" as="geometry" />
        </mxCell>
        <mxCell id="-pU3nQpz12ux-RrfOw-z-146" value="" style="ellipse;whiteSpace=wrap;html=1;aspect=fixed;strokeWidth=5;align=left;fontSize=16;" parent="1" vertex="1">
          <mxGeometry x="-1430" y="-669.6200000000001" width="20" height="20" as="geometry" />
        </mxCell>
        <mxCell id="-pU3nQpz12ux-RrfOw-z-148" value="&lt;div&gt;&lt;font face=&quot;Tahoma&quot;&gt;&lt;b&gt;6-27:&lt;/b&gt; Weapons Module&lt;br&gt;&lt;/font&gt;&lt;/div&gt;" style="text;html=1;strokeColor=none;fillColor=none;align=left;verticalAlign=middle;whiteSpace=wrap;rounded=0;fontSize=16;" parent="1" vertex="1">
          <mxGeometry x="-1400" y="-673.12" width="180" height="25.5" as="geometry" />
        </mxCell>
        <mxCell id="-pU3nQpz12ux-RrfOw-z-149" value="" style="ellipse;whiteSpace=wrap;html=1;aspect=fixed;strokeWidth=5;align=left;fontSize=16;" parent="1" vertex="1">
          <mxGeometry x="-1910" y="-530" width="20" height="20" as="geometry" />
        </mxCell>
        <mxCell id="-pU3nQpz12ux-RrfOw-z-151" value="&lt;div&gt;&lt;font face=&quot;Tahoma&quot;&gt;&lt;b&gt;SL9-53:&lt;/b&gt; Kaliyani Pits&lt;br&gt;&lt;/font&gt;&lt;/div&gt;" style="text;html=1;strokeColor=none;fillColor=none;align=left;verticalAlign=middle;whiteSpace=wrap;rounded=0;fontSize=16;" parent="1" vertex="1">
          <mxGeometry x="-1880" y="-532.75" width="150" height="25.5" as="geometry" />
        </mxCell>
        <mxCell id="-pU3nQpz12ux-RrfOw-z-115" value="" style="ellipse;whiteSpace=wrap;html=1;aspect=fixed;strokeWidth=5;align=left;fontSize=16;" parent="1" vertex="1">
          <mxGeometry x="-1430" y="-869.5" width="20" height="20" as="geometry" />
        </mxCell>
        <mxCell id="-pU3nQpz12ux-RrfOw-z-163" style="edgeStyle=none;shape=connector;rounded=1;orthogonalLoop=1;jettySize=auto;html=1;exitX=0.5;exitY=1;exitDx=0;exitDy=0;entryX=0.5;entryY=0;entryDx=0;entryDy=0;strokeColor=#0616B4;strokeWidth=5;align=center;verticalAlign=middle;fontFamily=Helvetica;fontSize=11;fontColor=default;labelBackgroundColor=default;endArrow=none;endFill=0;" parent="1" source="-pU3nQpz12ux-RrfOw-z-157" target="-pU3nQpz12ux-RrfOw-z-160" edge="1">
          <mxGeometry relative="1" as="geometry" />
        </mxCell>
        <mxCell id="-pU3nQpz12ux-RrfOw-z-157" value="" style="ellipse;whiteSpace=wrap;html=1;aspect=fixed;strokeWidth=5;align=left;fontSize=16;" parent="1" vertex="1">
          <mxGeometry x="250" y="-870" width="20" height="20" as="geometry" />
        </mxCell>
        <mxCell id="-pU3nQpz12ux-RrfOw-z-159" value="&lt;div&gt;&lt;font face=&quot;Tahoma&quot;&gt;&lt;b&gt;5-138&lt;/b&gt;&lt;br&gt;&lt;/font&gt;&lt;/div&gt;" style="text;html=1;strokeColor=none;fillColor=none;align=left;verticalAlign=middle;whiteSpace=wrap;rounded=0;fontSize=16;" parent="1" vertex="1">
          <mxGeometry x="280" y="-872.25" width="50" height="21" as="geometry" />
        </mxCell>
        <mxCell id="-pU3nQpz12ux-RrfOw-z-160" value="" style="ellipse;whiteSpace=wrap;html=1;aspect=fixed;strokeWidth=5;align=left;fontSize=16;" parent="1" vertex="1">
          <mxGeometry x="250" y="-670.62" width="20" height="20" as="geometry" />
        </mxCell>
        <mxCell id="-pU3nQpz12ux-RrfOw-z-161" value="&lt;div&gt;&lt;font face=&quot;Tahoma&quot;&gt;&lt;b&gt;6-103&lt;br&gt;&lt;/b&gt;&lt;/font&gt;&lt;/div&gt;" style="text;html=1;strokeColor=none;fillColor=none;align=left;verticalAlign=middle;whiteSpace=wrap;rounded=0;fontSize=16;" parent="1" vertex="1">
          <mxGeometry x="280" y="-671.87" width="50" height="21" as="geometry" />
        </mxCell>
        <mxCell id="-pU3nQpz12ux-RrfOw-z-165" style="edgeStyle=none;shape=connector;rounded=1;orthogonalLoop=1;jettySize=auto;html=1;entryX=0.5;entryY=0;entryDx=0;entryDy=0;strokeColor=#0616B4;strokeWidth=5;align=center;verticalAlign=middle;fontFamily=Helvetica;fontSize=11;fontColor=default;labelBackgroundColor=default;endArrow=none;endFill=0;exitX=0.5;exitY=1;exitDx=0;exitDy=0;" parent="1" source="-pU3nQpz12ux-RrfOw-z-160" target="-pU3nQpz12ux-RrfOw-z-166" edge="1">
          <mxGeometry relative="1" as="geometry">
            <mxPoint x="270" y="-630" as="sourcePoint" />
          </mxGeometry>
        </mxCell>
        <mxCell id="-pU3nQpz12ux-RrfOw-z-170" style="edgeStyle=none;shape=connector;rounded=1;orthogonalLoop=1;jettySize=auto;html=1;exitX=0.5;exitY=1;exitDx=0;exitDy=0;strokeColor=#0616B4;strokeWidth=5;align=center;verticalAlign=middle;fontFamily=Helvetica;fontSize=11;fontColor=default;labelBackgroundColor=default;endArrow=none;endFill=0;" parent="1" source="-pU3nQpz12ux-RrfOw-z-166" target="-pU3nQpz12ux-RrfOw-z-168" edge="1">
          <mxGeometry relative="1" as="geometry" />
        </mxCell>
        <mxCell id="-pU3nQpz12ux-RrfOw-z-166" value="" style="ellipse;whiteSpace=wrap;html=1;aspect=fixed;strokeWidth=5;align=left;fontSize=16;" parent="1" vertex="1">
          <mxGeometry x="250" y="-471.12" width="20" height="20" as="geometry" />
        </mxCell>
        <mxCell id="-pU3nQpz12ux-RrfOw-z-167" value="&lt;div&gt;&lt;font face=&quot;Tahoma&quot;&gt;&lt;b&gt;7-37&lt;br&gt;&lt;/b&gt;&lt;/font&gt;&lt;/div&gt;" style="text;html=1;strokeColor=none;fillColor=none;align=left;verticalAlign=middle;whiteSpace=wrap;rounded=0;fontSize=16;" parent="1" vertex="1">
          <mxGeometry x="280" y="-472.37" width="50" height="21" as="geometry" />
        </mxCell>
        <mxCell id="-pU3nQpz12ux-RrfOw-z-168" value="" style="ellipse;whiteSpace=wrap;html=1;aspect=fixed;strokeWidth=5;align=left;fontSize=16;" parent="1" vertex="1">
          <mxGeometry x="250" y="-67.63" width="20" height="20" as="geometry" />
        </mxCell>
        <mxCell id="-pU3nQpz12ux-RrfOw-z-169" value="&lt;div&gt;&lt;font face=&quot;Tahoma&quot;&gt;&lt;b&gt;9-30&lt;br&gt;&lt;/b&gt;&lt;/font&gt;&lt;/div&gt;" style="text;html=1;strokeColor=none;fillColor=none;align=left;verticalAlign=middle;whiteSpace=wrap;rounded=0;fontSize=16;" parent="1" vertex="1">
          <mxGeometry x="280" y="-68.63" width="50" height="21" as="geometry" />
        </mxCell>
        <mxCell id="-pU3nQpz12ux-RrfOw-z-171" value="" style="group" parent="1" vertex="1" connectable="0">
          <mxGeometry x="-470" y="-330" width="338.76" height="140" as="geometry" />
        </mxCell>
        <mxCell id="-pU3nQpz12ux-RrfOw-z-156" value="" style="rounded=1;whiteSpace=wrap;html=1;fontFamily=Helvetica;fontSize=11;labelBackgroundColor=default;fillColor=#f5f5f5;strokeColor=#666666;fontColor=#333333;" parent="-pU3nQpz12ux-RrfOw-z-171" vertex="1">
          <mxGeometry width="338.76" height="140" as="geometry" />
        </mxCell>
        <mxCell id="-pU3nQpz12ux-RrfOw-z-20" style="rounded=1;orthogonalLoop=1;jettySize=auto;html=1;entryX=1;entryY=0.5;entryDx=0;entryDy=0;strokeColor=#037B35;strokeWidth=5;endArrow=none;endFill=0;align=left;fontSize=16;" parent="-pU3nQpz12ux-RrfOw-z-171" edge="1">
          <mxGeometry relative="1" as="geometry">
            <mxPoint x="58.75999999999999" y="30" as="sourcePoint" />
            <mxPoint x="18.75999999999999" y="30" as="targetPoint" />
          </mxGeometry>
        </mxCell>
        <mxCell id="-pU3nQpz12ux-RrfOw-z-21" value="&lt;span&gt;&lt;font face=&quot;Tahoma&quot;&gt;Major Location&lt;br&gt;&lt;/font&gt;&lt;/span&gt;" style="text;html=1;strokeColor=none;fillColor=none;align=left;verticalAlign=middle;whiteSpace=wrap;rounded=0;fontSize=16;fontStyle=0" parent="-pU3nQpz12ux-RrfOw-z-171" vertex="1">
          <mxGeometry x="218.76" y="20" width="120" height="20" as="geometry" />
        </mxCell>
        <mxCell id="-pU3nQpz12ux-RrfOw-z-22" style="rounded=1;orthogonalLoop=1;jettySize=auto;html=1;entryX=1;entryY=0.5;entryDx=0;entryDy=0;strokeColor=#0198D4;strokeWidth=5;endArrow=none;endFill=0;align=left;fontSize=16;" parent="-pU3nQpz12ux-RrfOw-z-171" edge="1">
          <mxGeometry relative="1" as="geometry">
            <mxPoint x="58.75999999999999" y="59.90000000000009" as="sourcePoint" />
            <mxPoint x="18.75999999999999" y="59.90000000000009" as="targetPoint" />
          </mxGeometry>
        </mxCell>
        <mxCell id="-pU3nQpz12ux-RrfOw-z-23" value="&lt;font face=&quot;Tahoma&quot;&gt;&lt;span&gt;Transit Shaft&lt;br&gt;&lt;/span&gt;&lt;/font&gt;" style="text;html=1;strokeColor=none;fillColor=none;align=left;verticalAlign=middle;whiteSpace=wrap;rounded=0;fontSize=16;fontStyle=0" parent="-pU3nQpz12ux-RrfOw-z-171" vertex="1">
          <mxGeometry x="68.75999999999999" y="50" width="120" height="20" as="geometry" />
        </mxCell>
        <mxCell id="-pU3nQpz12ux-RrfOw-z-40" style="rounded=1;orthogonalLoop=1;jettySize=auto;html=1;entryX=1;entryY=0.5;entryDx=0;entryDy=0;strokeColor=#A3A2A5;strokeWidth=5;endArrow=none;endFill=0;dashed=1;dashPattern=1 1;align=left;fontSize=16;" parent="-pU3nQpz12ux-RrfOw-z-171" edge="1">
          <mxGeometry relative="1" as="geometry">
            <mxPoint x="58.75999999999999" y="119.90000000000009" as="sourcePoint" />
            <mxPoint x="18.75999999999999" y="119.90000000000009" as="targetPoint" />
          </mxGeometry>
        </mxCell>
        <mxCell id="-pU3nQpz12ux-RrfOw-z-41" value="&lt;font face=&quot;Tahoma&quot;&gt;&lt;span&gt;Foot&lt;/span&gt;&lt;/font&gt;" style="text;html=1;strokeColor=none;fillColor=none;align=left;verticalAlign=middle;whiteSpace=wrap;rounded=0;fontSize=16;fontStyle=0" parent="-pU3nQpz12ux-RrfOw-z-171" vertex="1">
          <mxGeometry x="68.75999999999999" y="110" width="120" height="20" as="geometry" />
        </mxCell>
        <mxCell id="-pU3nQpz12ux-RrfOw-z-103" value="" style="ellipse;whiteSpace=wrap;html=1;aspect=fixed;strokeWidth=5;align=left;fontSize=16;" parent="-pU3nQpz12ux-RrfOw-z-171" vertex="1">
          <mxGeometry x="188.76" y="20" width="20" height="20" as="geometry" />
        </mxCell>
        <mxCell id="-pU3nQpz12ux-RrfOw-z-104" value="&lt;span&gt;&lt;font face=&quot;Tahoma&quot;&gt;Teleporter&lt;/font&gt;&lt;/span&gt;" style="text;html=1;strokeColor=none;fillColor=none;align=left;verticalAlign=middle;whiteSpace=wrap;rounded=0;fontSize=16;fontStyle=0" parent="-pU3nQpz12ux-RrfOw-z-171" vertex="1">
          <mxGeometry x="68.75999999999999" y="20" width="120" height="20" as="geometry" />
        </mxCell>
        <mxCell id="-pU3nQpz12ux-RrfOw-z-105" value="" style="ellipse;whiteSpace=wrap;html=1;aspect=fixed;strokeWidth=5;fillColor=#000000;align=left;fontSize=16;" parent="-pU3nQpz12ux-RrfOw-z-171" vertex="1">
          <mxGeometry x="194.01" y="55.25" width="9.5" height="9.5" as="geometry" />
        </mxCell>
        <mxCell id="-pU3nQpz12ux-RrfOw-z-106" value="&lt;font face=&quot;Tahoma&quot;&gt;&lt;span&gt;Minor Location&lt;br&gt;&lt;/span&gt;&lt;/font&gt;" style="text;html=1;strokeColor=none;fillColor=none;align=left;verticalAlign=middle;whiteSpace=wrap;rounded=0;fontSize=16;fontStyle=0" parent="-pU3nQpz12ux-RrfOw-z-171" vertex="1">
          <mxGeometry x="218.76" y="50" width="120" height="20" as="geometry" />
        </mxCell>
        <mxCell id="-pU3nQpz12ux-RrfOw-z-154" style="rounded=1;orthogonalLoop=1;jettySize=auto;html=1;entryX=1;entryY=0.5;entryDx=0;entryDy=0;strokeColor=#0616B4;strokeWidth=5;endArrow=none;endFill=0;align=left;fontSize=16;" parent="-pU3nQpz12ux-RrfOw-z-171" edge="1">
          <mxGeometry relative="1" as="geometry">
            <mxPoint x="58.75999999999999" y="89.90000000000009" as="sourcePoint" />
            <mxPoint x="18.75999999999999" y="89.90000000000009" as="targetPoint" />
          </mxGeometry>
        </mxCell>
        <mxCell id="-pU3nQpz12ux-RrfOw-z-155" value="&lt;font face=&quot;Tahoma&quot;&gt;Great Pillar&lt;br&gt;&lt;/font&gt;" style="text;html=1;strokeColor=none;fillColor=none;align=left;verticalAlign=middle;whiteSpace=wrap;rounded=0;fontSize=16;fontStyle=0" parent="-pU3nQpz12ux-RrfOw-z-171" vertex="1">
          <mxGeometry x="68.75999999999999" y="80" width="120" height="20" as="geometry" />
        </mxCell>
        <mxCell id="-pU3nQpz12ux-RrfOw-z-60" value="" style="ellipse;whiteSpace=wrap;html=1;aspect=fixed;strokeWidth=5;fillColor=#000000;align=left;fontSize=16;" parent="1" vertex="1">
          <mxGeometry x="-1064" y="-864.75" width="9.5" height="9.5" as="geometry" />
        </mxCell>
      </root>
    </mxGraphModel>
  </diagram>
</mxfile>
